# xmcd
#
# Track frame offsets:
#	150
#	21243
#	45833
#	63854
#	81736
#	99099
#	117257
#	135549
#	152209
#	171300
#	187936
#	205961
#	221565
#	245624
#	264401
#	284732
#
# Disc length: 4026 seconds
#
# Revision: 1
# Processed by: cddbd v1.5.2PL0 Copyright (c) Steve Scherf et al.
# Submitted via: audiograbber 1.83.01
#
DISCID=e50fb810
DTITLE=Sarah Brightman - Diva: The Singles Collection
DYEAR=2006
DGENRE=Vocal
TTITLE0=Sarah Brightman - Phantom Of The Opera 
TTITLE1=Sarah Brightman - The Music Of The Night 
TTITLE2=Sarah Brightman - Pie Jesu From "Requiem" 
TTITLE3=Sarah Brightman - Who Wants To Live Forever 
TTITLE4=Sarah Brightman - Tu Quieres Volver 
TTITLE5=Sarah Brightman - Just Show Me How To Love You 
TTITLE6=Sarah Brightman - Deliver Me 
TTITLE7=Sarah Brightman - Nella Fantasia 
TTITLE8=Sarah Brightman - Scarborough Fair 
TTITLE9=Sarah Brightman - A Whiter Shade Of Pale 
TTITLE10=Sarah Brightman - It's A Beautiful Day 
TTITLE11=Sarah Brightman - What You Never Know 
TTITLE12=Sarah Brightman - A Question Of Honour 
TTITLE13=Sarah Brightman/andrea Bocelli - Time To Say Goodbye (Con Te Partiro) 
TTITLE14=Sarah Brightman - Il Mio Coure Va
TTITLE15=Sarah Brightman - Sarahbande
EXTD=
EXTT0=
EXTT1=
EXTT2=
EXTT3=
EXTT4=
EXTT5=
EXTT6=
EXTT7=
EXTT8=
EXTT9=
EXTT10=
EXTT11=
EXTT12=
EXTT13=
EXTT14=
EXTT15=
PLAYORDER=
